<?xml version="1.0" encoding="UTF-8"?><svg id="Capa_2" xmlns="http://www.w3.org/2000/svg" viewBox="0 0 424.21 256.28"><defs><style>.cls-1{fill:#ae9472;stroke-width:0px;}.cls-2{opacity:.32;}.cls-3{opacity:.36;}</style></defs><g id="Capa_1-2"><g class="cls-2"><path class="cls-1" d="M69.73,203.06c-5.05-3.94-3.36-8.25-1.72-12.4l.67-1.75c9.42-26.5,28.79-45.66,47.5-64.18l2.54-2.51c13.69-13.58,27.55-27.02,41.4-40.45,10.31-10,20.62-20.02,30.87-30.08,7.6-7.46,14.33-16.39,20.56-27.3l.5-.86c1.88-3.22,4.46-7.62.19-11.96-1.69-1.71-3.77-2.55-6.36-2.55-1.75,0-3.55.37-5.27.75-.74.16-1.45.31-2.15.43-1.93.33-3.66,1.1-5.33,1.84-30.19,13.38-56.99,34.62-75.55,59.89-.92,1.25-2.01,3.09-.94,4.67,1.03,1.5,3.22,1.68,4.77,1.68,3.71,0,8.91-1.23,11.41-1.82l1.24-.28c.71-.15,1.43-.27,2.12-.27,1.5,0,2.46.58,3.32,2,1.31,2.12.44,3.36-1.47,4.78-1.31.95-2.5,1.57-3.62,1.91-1.62.48-3.28,1.12-4.95,1.77-3.46,1.35-7.04,2.73-10.56,2.73-3.84,0-7.06-1.64-10.13-5.17-7.04-8.09-1.66-13.29,3.54-18.3.92-.89,1.79-1.74,2.57-2.58,19.83-21.42,43.95-38.71,71.72-51.39,5.37-2.45,11.73-5.08,19.26-5.25h.08c5.89,0,9.51,1.14,11.59,3.37,2.18,2.35,2.91,6.19,2.15,11.4-1.51,10.28-6.75,18.55-12.18,25.97-17,23.22-37.81,43.63-57.93,63.38-6.08,5.97-12.16,11.93-18.15,17.99l-5.66,5.68c-14.66,14.65-29.81,29.8-39.8,49.16l1.45,1.38c9.52-5.15,19.8-7.66,31.4-7.66s23.26,2.31,37.2,7.05c9.16,3.11,17.81,4.68,25.73,4.68,10.4,0,19.76-2.71,27.82-8.08l1.06-.74c1.35-.98,2.89-2.09,4.4-2.09.73,0,1.87.23,3.31,2.21,2.05,2.82.88,5.25-3.78,7.86-9.05,5.06-18.87,7.62-29.19,7.62-6.56,0-13.47-1.02-20.56-3.07l-3.1-.86c-3.07-.85-6.24-1.71-9.25-2.96-10.89-4.52-21.26-6.81-30.79-6.81-15.09,0-28.48,5.52-40.92,16.88-.68.62-1.34,1.44-2,2.29-1.45,1.87-2.96,3.78-5.06,3.78-1.15,0-2.43-.57-3.95-1.75Z"/><path class="cls-1" d="M249.47,164.73c-3.27-10.31-3.22-20.15-2.88-29.33,1.57-42.86,16.4-82.1,45.36-119.97,2.47-3.24,5.96-6.3,10.97-9.61,5.86-3.87,11.59-5.83,17.03-5.83,4.85,0,9.31,1.58,13.23,4.68,5.81,4.62,10.32,12.5,13.05,22.85,4.47,16.82,2.85,31.99.43,45.88-7.29,41.85-24.55,76.02-51.34,101.58-4.59,4.36-9.25,7.28-14.26,8.93-2.89.96-5.72,1.44-8.43,1.44-10.72,0-18.95-7.33-23.17-20.64ZM262.92,110.84c-4.49,16.56-5.24,35.5-2.07,51.96,1.03,5.34,2.78,8.99,5.34,11.12,1.78,1.5,3.96,2.25,6.49,2.25,2.09,0,4.42-.51,7.12-1.53,5.82-2.23,11.1-5.76,16.13-10.82,26.68-26.79,42.57-61.18,47.22-102.22,1.66-14.5.21-27.73-4.42-40.45-3.22-8.84-8.78-13.71-15.65-13.71-2.21,0-4.55.51-6.97,1.5-7.27,3.01-13.32,8.08-17.99,15.07-11.71,17.49-18.8,32.92-22.33,48.56-4.03,17.94-3.41,34.46,1.86,49.14.9,2.41,2.07,5.57,1.43,6.6-.51.17-.85.22-1.12.22-.23,0-.41-.05-.6-.11-4.39-1.39-7.67-7.78-10.3-12.9-.9-1.74-1.72-3.33-2.48-4.55l-1.19-1.89-.48,1.77Z"/></g><path class="cls-1" d="M47.88,155.02c-.12.01-.41-.08-.62-.18-.56-.26-1.14-.67-1.7-1.07-.25-.17-.48-.34-.72-.5-.73-.49-1.45-.98-2.18-1.47-1.5-1.03-3-2.05-4.54-3-1.2-.74-2.4-1.47-3.61-2.2-.37-.22-.76-.44-1.17-.66-.8-.43-1.63-.89-2.27-1.41-4.58-2.77-8.36-4.79-11.94-6.37-.97-.42-1.6-.58-2.1-.54-.67.06-1.13.5-1.55,1.45-1.36,3.07-7.8,22.77-8.79,25.95-.64,2.07-1.28,4.14-2.02,6.17-.09.25-.17.5-.25.76-.16.51-.33,1.02-.56,1.48-.21.42-.46.83-.9.87-.19.02-.41-.03-.67-.15-.92-.43-1.21-1.04-.94-1.98.83-2.84,1.68-5.68,2.54-8.51l.62-2.08c.75-2.49,6.92-21.38,7.72-23.84.22-.68.3-1.22-.04-1.67-.29-.38-.83-.63-1.74-.8l-1.02-.2c-2.26-.43-4.59-.88-6.86-.86-.89,0-1.87-.09-2.36-.94-.47-.82-.17-1.39,1-1.88,4.54-1.9,8.34-3.47,12.39-4.93,1.68-.61,2.61-1.55,3.11-3.15,2.53-8.06,5.09-15.12,7.81-21.61.04-.11.14-.23.25-.35.24-.28.53-.63.35-1.1-.15-.4-.59-.77-1.39-1.18-.18-.38.56-1.23,1.06-1.79.24-.27.48-.54.64-.77l.22-.31c.37-.54.78-1.14,1.4-1.2.31-.03.66.08,1.06.35,1,.66.8,1.48.4,2.57l-.12.34c-1.6,4.74-3.22,9.46-4.84,14.19l-3.04,8.88c-.15.44-.26.89-.38,1.38l-.26,1.01.34.03c.22.02.42.02.61,0,1.15-.11,1.57-.87,1.94-1.55.11-.19.21-.38.33-.56,4.45-6.48,9.42-13.21,16.75-17.98,2-1.3,4.24-2.54,7.06-2.8l.35-.03c1.85-.12,3.44.38,4.47,1.4,1.03,1.02,1.43,2.49,1.12,4.15-.67,3.67-3.22,6.06-5.55,8.01-4.97,4.15-11.35,7.33-18.97,9.46-5.06,1.41-8.25,4.34-10.05,9.23-.23.62-.5,1.23-.77,1.83l-.38.87.44.24c.28.15,4.63,2.3,5.6,2.8,1.87.96,3.81,2.04,5.76,3.2,4.48,2.68,8.87,5.79,13.12,8.81,1.77,1.26,3.54,2.51,5.32,3.74.16.11.33.23.42.37l.06.1ZM14.01,129.01c-3.34.88-6.18,1.9-9.19,3.31l-.57.27.73.15c3.61.71,5.79,1.15,7.1,1.02,1.92-.18,2.04-1.52,2.29-4.46l.03-.38-.38.1ZM47.37,101.58c-.56.05-1.18.2-1.87.46-9.1,3.32-14.15,10.51-19.03,17.46l-1.85,2.62.72-.2c6.64-1.86,12.19-4.12,16.99-6.91,3.25-1.89,6.51-4.12,8.4-7.66.68-1.28,1.62-3.03-.26-4.75-.85-.78-1.9-1.12-3.1-1.01Z"/><path class="cls-1" d="M57.1,129.47c.16.38-.32.84-.64,1.14l-.36.33c-3.82,3.59-7.77,7.31-13.83,7.87l-.28.02c-1.92.15-3.61-.34-4.75-1.4-1.07-1-1.57-2.43-1.39-4.04.59-5.42,3.78-9.22,9.47-11.32.3-.11.6-.18.9-.21.95-.09,1.77.26,2.44,1.03,1.01,1.15.56,2.03-.08,2.98-1.44,2.13-3.78,3.53-7.38,4.42-2.57.63-2.8,2.59-3.01,4.48l-.05.41c-.07.55.09,1.08.46,1.5.45.53,1.19.91,2.12,1.09.76.14,1.5.18,2.26.11,1.28-.12,2.38-.51,3.68-1,2.03-.78,3.96-1.93,5.91-3.54.84-.7,1.67-1.46,2.53-2.34.15-.15.28-.31.43-.47.21-.25.43-.5.68-.71.23-.19.59-.33.9-.36ZM41.34,128.64l.6-.2c2.66-.88,4.43-1.87,5.61-4.3l.24-.49-.53.22c-2.24.93-4.05,2.02-5.59,4.28l-.33.49Z"/><path class="cls-1" d="M88.79,126.1c.1.27-.14.59-.36.87-.1.13-.2.26-.26.38-2.78,5.32-6.9,9.83-12.61,13.8-.59.41-1.33.66-2.32.76h-.1c-.98.1-1.77-.08-2.33-.54-.58-.47-.92-1.21-1.01-2.22-.16-1.81.55-3.28,1.23-4.7l.47-.99c.23-.48.46-.96.62-1.47l.07-.18c.13-.35.32-.83-.26-1.31-.32-.27-.71-.39-1.14-.35-.17.02-.35.06-.54.12-1.48.51-3.02,1.04-4.47,1.7-1.92.87-3.63,2.04-5.28,3.18-.73.5-1.45.99-2.19,1.47l-.2.13c-.34.23-.69.46-1.1.5-.36.03-.74-.09-1.15-.39-.89-.64-.79-1.31-.69-2.03l.03-.23c.39-3.27,1.31-6.27,2.75-8.92l.1-.19c.15-.31.33-.66.67-.69.11-.01.24.01.39.07.26.1.45.25.57.45.44.72-.02,1.99-.29,2.75-.07.19-.13.36-.16.48l-1.56,5.52c-.04.14-.16.58.18.82.14.11.33.15.56.13.52-.05,1.22-.4,1.46-.55.33-.21.63-.46.92-.71.34-.29.68-.57,1.07-.8,1.22-.7,2.45-1.39,3.71-2.05,1.56-.81,3-1.37,4.4-1.7.21-.05.42-.08.62-.1,1-.09,1.9.18,2.52.78.68.65.96,1.6.78,2.66-.23,1.36-.64,2.68-1.04,3.96-.23.72-.45,1.43-.64,2.16l-.08.24c-.14.43-.33,1.02.23,1.5.32.27.69.39,1.1.36.33-.03.64-.16.92-.27,3.58-1.46,5.98-4.09,7.96-6.45,1.65-1.97,3.71-4.42,4.91-7.31l.07-.17c.16-.4.37-.94.73-.97.09,0,.2.02.32.09.25.14.41.29.46.43Z"/><path class="cls-1" d="M108.64,124.29c.18.68-1.59,1.41-2.17,1.65-1.02.43-2,.67-3.04.77-.9.08-1.84.06-2.78-.08-.49-.07-.89-.09-1.24-.06-.98.09-1.54.58-1.91,1.67-.89,2.6-2.52,4.83-4.84,6.63-.58.45-1.37.98-2.29,1.07-.59.05-1.16-.07-1.75-.39-1.65-.88-1.83-2.46-1.87-4-.11-4.02,1.14-7.68,3.74-10.89.63-.77,1.27-1.54,1.93-2.28.53-.59,1.15-.92,1.84-.99.45-.04.94.03,1.46.21,1.19.41,1.96,1.26,2.51,2.75.46,1.25.59,2.45.4,3.65-.11.67,0,1.13.31,1.44.33.32.86.45,1.72.41.5-.02.99-.06,1.48-.1,1.15-.11,2.16-.27,3.08-.5.42-.11.8-.32,1.17-.52.46-.25.93-.51,1.46-.56.1,0,.2-.01.3,0,.39.02.5.11.51.13ZM96.02,125.53c-.32-.35-.55-.54-.78-.73-.58-.49-1.19-.99-1.85-1.42-.12-.07-.26-.22-.41-.36-.33-.33-.71-.71-1.13-.67-.23.02-.42.17-.58.45-2.01,3.43-3.29,6.48-2.99,10.26.05.63.26,1.11.62,1.4.25.21.56.3.9.26.28-.03.57-.14.88-.33,3.21-2.01,4.54-5.3,5.34-7.95.05-.15.04-.32.03-.53,0-.11-.01-.23,0-.38ZM95.38,120.44c-.2-.15-.42-.22-.66-.2-.59.05-1.1.67-1.21,1.09-.32,1.23.67,1.87,1.62,2.49.27.17.54.35.79.55l.28.21.02-.28c.01-.27.05-.54.08-.8.13-1.04.27-2.11-.93-3.06Z"/><path class="cls-1" d="M130.78,121.98c.02.05,0,.17-.4.32-.49.18-1.09.31-1.74.37-.78.07-1.59.04-2.29-.08-1.64-.3-3.38-1.25-5.17-2.84l-.17-.15-2.22,2.62c-2.09,2.47-4.18,4.94-6.29,7.39-.47.55-1.04,1.04-1.59,1.51l-.44.38c-.4.36-.77.54-1.17.58-.34.03-.7-.05-1.09-.25-.8-.41-1.21-1.08-1.34-2.18-.23-1.96-.09-4.03.42-6.53.58-2.82,1.22-5.72,1.98-8.85.14-.56.33-1.16.85-1.21.14-.01.3.01.48.07.33.12.57.27.71.47.28.39.2.93.12,1.4l-.03.17c-.38,2.48-.79,4.96-1.2,7.43-.24,1.55-.52,3.08-.8,4.61l-.27,1.48c-.12.66-.06,1.08.18,1.31.1.1.28.21.56.18,1.13-.1,3.3-2.4,3.33-2.42,1.11-1.23,2.24-2.63,3.45-4.29.95-1.3,1.76-2.74,2.54-4.13.26-.47.94-1.67.94-1.67.21-.41.42-.79.87-.83.14-.01.3,0,.49.06.64.18.78.58.94,1.21.04.16.08.32.14.47.96,2.67,2.07,3.42,4.97,3.35h.25c.28-.04.55-.1.82-.15.26-.05.52-.11.79-.13.57-.03,1.22.15,1.4.33Z"/><path class="cls-1" d="M159.56,117.61c.1.15.01.48-.19.75-3.62,4.57-8.23,8.78-13.71,12.5l-.34.24c-.44.32-.89.65-1.42.7-.41.04-.84-.1-1.29-.42-1.14-.8-.93-1.65-.7-2.54.04-.18.09-.36.12-.54.47-2.57,1.39-4.95,2.31-7.16,0,0,1.2-2.81,1.46-3.44.04-.08.11-.22.21-.4.59-1.1,1.2-2.33.85-2.99-.09-.16-.23-.29-.41-.36-.09-.04-.19-.05-.3-.04-.76.07-1.83,1.47-1.84,1.48-.5.66-1.08,1.7-1.02,2.9l.02.2c.03.32.07.87-.16.89-.09,0-.33-.05-.88-.5l-.17-.14-.34.42c-.19.23-.38.46-.55.69-.78,1.03-1.53,2.09-2.27,3.15-1.65,2.34-3.35,4.76-5.45,6.81l-.41.42c-.64.66-1.36,1.41-2.25,1.49-.41.04-.83-.07-1.27-.32-1.77-1-1.49-2.72-1.25-4.23l.06-.39c.58-3.8,1.96-7.2,4.12-10.12,1.55-2.09,3.36-3.16,5.7-3.38l.22-.02c1.01-.07,2.04-.15,2.55.45.83.95,1.51,1.36,2.14,1.3.6-.06,1.03-.54,1.48-1.06l.15-.17c.33-.38.72-.7,1.14-.93.35-.2.68-.39,1.04-.42.28-.03.55.05.82.23.7.47.57,1.02.33,1.68-1.05,2.98-2.14,5.88-3.23,8.78l-.85,2.28c-.34.92-.59,1.89-.83,2.83l-.23.89c-.1.4-.09.68.06.88.09.12.21.21.37.25.11.03.24.04.38.03.8-.07,2.01-.82,2.34-1.09,2.35-1.95,4.63-3.97,6.75-5.87.7-.62,1.36-1.27,2.03-1.92.47-.46.94-.92,1.42-1.37.24-.22.46-.45.69-.67.42-.42.83-.83,1.3-1.2l.18-.16c.21-.19.53-.48.77-.5.15,0,.3.04.36.12ZM141.66,115.33c-.51-.57-1.26-.89-1.9-.83-.09,0-.18.02-.26.05-.94.27-1.79.67-2.47,1.16-3.24,2.35-4.88,5.88-6.17,9-.13.33-.29.65-.44.97-.37.77-.75,1.57-.88,2.48-.06.42-.03,1.72.55,2.17.15.12.32.17.5.15.17-.02.34-.09.53-.23,3.24-2.38,5.43-5.69,7.55-8.89,1-1.51,2.03-3.06,3.16-4.5.35-.45.28-1.02-.17-1.53Z"/><path class="cls-1" d="M181.19,119.27c-4.5,4.35-9.91,9.18-17.33,11.5-.69.22-1.33.35-1.93.41-1.6.15-2.99-.25-4.26-1.22-1.83-1.4-2.42-3.28-1.77-5.61,1.72-6.15,5.67-11.15,11.73-14.84.74-.45,1.47-.71,2.2-.78,1.16-.11,2.25.3,3.22,1.22,1.97,1.87,1.15,4.16.48,5.36-.57,1.03-1.41,1.89-2.01,2.44l-.12.12c-.21.21-.61.59-.93.62-.2-.04-.27-.08-.31-.13-.47-.57.86-2.6,1.5-3.57.4-.6.6-.92.63-1.09.02-.14.06-.28.11-.43.17-.59.37-1.32-.51-1.94-.39-.27-.81-.39-1.26-.35-.4.04-.82.2-1.28.5-5.31,3.47-9.05,8.27-11.1,14.28-.48,1.42-.18,2.58.87,3.36.81.6,1.79.84,2.99.73.31-.03.62-.08.92-.14,4.28-.91,7.64-3.08,10.08-4.87,1.24-.91,2.5-1.93,4.08-3.33.4-.35.78-.73,1.17-1.1.75-.74,1.53-1.5,2.42-2.06.24-.15.4-.19.49-.2.15-.01.19.05.21.07.13.19.09.72-.29,1.08Z"/><path class="cls-1" d="M200.8,116.29c.06.58-.82,1.14-1.15,1.47-1.25,1.27-2.54,2.52-3.9,3.69-2.77,2.36-5.9,4.41-9.57,5.7-1.55.55-3.23.99-5.09-.36-1.89-1.37-1.99-3.15-1.72-4.69.94-5.49,3.13-10.33,6.35-14.59.4-.53.83-1.39,1.93-.67,1.14.75.46,1.47.16,2.05-2.11,4.16-4.23,8.32-5.63,12.87-.37,1.21-1.38,2.67.1,3.91,1.56,1.3,3.37.53,4.75.06,2.93-1,5.35-2.72,7.52-4.62.66-.58,5.28-5.81,6.03-5.31.12.08.19.25.22.49ZM188.13,102.75c-.53-1.52.21-2.16,1.55-2.38.93-.15,1.7.15,2.16,1.36.2,1.26-.64,1.85-1.9,2.09-.85.16-1.48-.12-1.81-1.07Z"/><path class="cls-1" d="M221.05,113.88c.18.68-1.59,1.41-2.17,1.65-1.02.43-2,.67-3.04.77-.9.08-1.84.06-2.78-.08-.49-.07-.9-.09-1.24-.06-.98.09-1.54.58-1.91,1.67-.89,2.59-2.52,4.82-4.84,6.63-.58.45-1.37.98-2.29,1.07-.59.05-1.16-.07-1.75-.39-1.65-.88-1.83-2.46-1.87-4-.12-4.02,1.14-7.68,3.74-10.89.63-.77,1.27-1.54,1.93-2.29.53-.59,1.15-.92,1.84-.99.45-.04.94.03,1.46.21,1.19.41,1.96,1.26,2.51,2.75.46,1.25.59,2.45.4,3.65-.11.67,0,1.13.31,1.44.33.32.86.45,1.72.41.5-.02.99-.06,1.48-.1,1.15-.11,2.16-.27,3.08-.5.42-.11.8-.32,1.17-.52.46-.25.93-.51,1.46-.56.1,0,.2-.01.3,0,.39.02.5.11.51.13ZM208.44,115.12c-.32-.35-.55-.54-.78-.73-.59-.49-1.19-.99-1.85-1.42-.12-.07-.26-.21-.41-.36-.34-.33-.71-.71-1.13-.67-.23.02-.42.17-.58.45-2.01,3.43-3.29,6.48-2.99,10.25.05.63.26,1.11.62,1.4.25.21.56.3.89.26.28-.03.57-.14.88-.33,3.21-2.01,4.54-5.3,5.34-7.95.05-.15.04-.32.03-.53,0-.11-.01-.23,0-.38ZM207.79,110.03c-.2-.15-.42-.22-.66-.2-.59.05-1.1.67-1.21,1.09-.32,1.23.67,1.87,1.62,2.49.27.17.54.35.79.55l.28.21.02-.28c.01-.27.05-.54.08-.8.13-1.04.27-2.11-.93-3.06ZM208.22,104.8c-.12-.1-.27-.35-.25-.43.34-1.59.92-3.17,1.77-4.83.06-.12.16-.19.29-.2.27-.03.62.2.85.55t0,0s0,.05,0,.09c.01.07.02.13,0,.15-.77,1.52-1.55,3.04-2.33,4.55-.05.1-.13.16-.2.17-.03,0-.07,0-.13-.04Z"/><path class="cls-1" d="M252.03,110.99c.1.27-.14.59-.36.87-.1.13-.2.26-.26.38-2.78,5.32-6.9,9.83-12.61,13.8-.59.41-1.33.66-2.32.76h-.1c-.98.1-1.77-.08-2.33-.54-.58-.47-.92-1.21-1.01-2.22-.16-1.81.55-3.28,1.23-4.7l.47-.99c.23-.48.46-.96.62-1.47l.07-.18c.13-.35.32-.83-.26-1.31-.32-.27-.71-.39-1.14-.35-.17.02-.35.06-.54.12-1.48.51-3.01,1.04-4.47,1.7-1.92.87-3.63,2.04-5.28,3.18-.72.5-1.45,1-2.19,1.47l-.21.13c-.34.23-.69.46-1.1.5-.36.03-.74-.09-1.15-.39-.88-.64-.79-1.31-.69-2.03l.03-.23c.39-3.27,1.31-6.27,2.75-8.92l.1-.19c.15-.31.33-.66.67-.69.11,0,.24.01.39.07.26.1.45.25.57.45.44.72-.02,1.99-.29,2.75-.07.19-.13.35-.16.48l-1.57,5.52c-.04.14-.16.57.18.82.14.11.33.15.57.13.52-.05,1.22-.4,1.46-.55.33-.21.62-.46.92-.71.34-.29.67-.57,1.07-.8,1.22-.7,2.45-1.39,3.7-2.05,1.56-.81,3-1.37,4.4-1.7.21-.05.42-.08.62-.1,1-.09,1.9.18,2.52.78.68.65.96,1.6.78,2.66-.23,1.36-.64,2.68-1.04,3.96-.23.72-.45,1.43-.64,2.16l-.08.24c-.14.43-.33,1.02.23,1.5.32.27.69.39,1.1.36.33-.03.65-.16.92-.27,3.58-1.46,5.98-4.09,7.96-6.45,1.65-1.97,3.71-4.42,4.91-7.31l.07-.17c.16-.4.37-.94.73-.97.09,0,.2.02.32.09.25.14.41.29.46.43Z"/><path class="cls-1" d="M302.09,79.75c-.29,4.69-2.52,8.32-4.97,11.94-2.75,4.06-6.14,8.24-10.67,13.16-1.06,1.15-1.76,2.38-2.15,3.76-1.74,6.25-3.9,14.02-2.66,22.56.03.23.06.48.08.72.1,1.05.21,2.25,1.34,3.29.34.32.52.59.53.81,0,.19-.12.35-.38.49-.15.08-.3.12-.45.14-.48.04-.96-.24-1.27-.75-.65-1.06-.86-2.19-1-3.25-1-7.82.28-14.96,1.51-20.3.02-.07.06-.17.1-.27.15-.35.32-.75.11-1.06-.18-.26-.4-.34-.55-.35h-.02c-.68.06-1.28.74-1.8,1.36-.09.11-.16.19-.2.23-1.48,1.41-2.93,2.79-4.44,4.06l-.24.2c-1.69,1.42-3.43,2.89-6.04,3.13-1.09.09-1.95-.13-2.58-.63-.62-.5-1-1.26-1.1-2.2-.07-.68-.03-1.37.11-2,1.38-5.97,4.63-10.5,9.66-13.48.88-.52,1.75-.82,2.59-.9,2.28-.21,4.36,1.24,6.18,4.31l.21.36,2.32-5.58c1.84-4.43,3.67-8.83,5.53-13.21,1.36-3.21,2.92-6.55,5.74-8.96.6-.52,1.22-1.05,1.99-1.12.4-.04.8.06,1.23.29,1.41.76,1.32,2.09,1.25,3.26ZM281.23,104.96c-.23-.27-.45-.53-.64-.79-.6-.84-1.36-1.23-2.26-1.15-.42.04-.86.17-1.43.42-3.05,1.36-5.03,3.73-6.8,6.03-1.6,2.1-3.08,4.21-3.44,6.98-.13.96.03,1.61.48,2.04.46.43,1.2.59,2.3.49,1.75-.44,3.23-1.51,4.21-2.27,1.89-1.48,3.52-3.23,5.1-4.92.99-1.06,1.98-2.12,3.03-3.12,1.46-1.38.4-2.63-.54-3.72ZM300.95,78.24c-.17-.26-.44-.43-.75-.49-.11-.02-.22-.03-.33-.02-.47.04-1.01.37-1.42.88-.79.96-1.5,2.04-2.18,3.09l-.46.71c-1.18,1.79-2.27,3.75-3.34,5.99-1.66,3.47-3.03,7.17-4.36,10.75l-.66,1.79.37.19c.21-.56.79-1.1,1.31-1.59.26-.24.5-.47.7-.69.71-.81,1.42-1.63,2.11-2.45,1.63-1.93,2.89-3.54,3.97-5.08,1.34-1.92,2.42-3.74,3.3-5.56.67-1.38,2.76-6.02,1.75-7.52Z"/><path class="cls-1" d="M316.12,105.48c.16.38-.32.84-.64,1.14l-.36.33c-3.82,3.59-7.76,7.31-13.83,7.87l-.28.02c-1.92.15-3.61-.34-4.75-1.4-1.07-1-1.57-2.43-1.39-4.04.59-5.42,3.78-9.22,9.47-11.32.3-.11.6-.18.9-.21.95-.09,1.77.26,2.44,1.03,1.01,1.15.56,2.03-.08,2.98-1.44,2.13-3.78,3.53-7.38,4.42-2.57.63-2.8,2.59-3.01,4.48l-.05.41c-.07.55.09,1.08.46,1.51.45.53,1.19.91,2.12,1.08.76.15,1.5.18,2.26.11,1.28-.12,2.38-.51,3.68-1,2.03-.78,3.96-1.93,5.91-3.54.84-.7,1.67-1.46,2.53-2.34.15-.15.29-.31.43-.47.21-.25.43-.5.68-.71.23-.19.59-.33.9-.36ZM300.37,104.66l.6-.2c2.66-.88,4.43-1.87,5.61-4.3l.24-.49-.53.22c-2.24.93-4.05,2.02-5.59,4.28l-.33.49Z"/><path class="cls-1" d="M339,121.17c-1.96-.58-2.06-2.16-2.16-3.68-.02-.25-.03-.48-.05-.71-1.81-18.2-2.42-36.26-2.8-53.07,0-.16-.02-.34-.04-.54-.09-.86-.1-1.53.49-1.58.12-.01.28,0,.46.04.32.08.55.2.71.37.31.34.3.9.29,1.44,0,.25,0,.5.02.72,1.34,11.15,1.89,22.35,2.43,33.18.2,4.12.41,8.24.65,12.37l.07,1.31c.07,1.53.15,3.1.44,4.68.03.18.09.39.3.59l.11.1.13-.02c1.15-.38,1.5-1.83,1.76-2.88l.11-.44c.47-1.76.91-3.18,1.37-4.5,1.59-4.52,3.15-8.95,4.85-13.33,4.71-12.19,18.7-45.46,27.83-57.12.88-1.12,1.98-2.23,3.49-3.52.15-.13.37-.21.6-.23.27-.03.68.03,1.07.44.58.61.28.92-.24,1.38-7.69,6.69-12.09,15.83-16.35,24.66l-.59,1.21c-4.59,9.51-16.27,39.06-19.64,48.99-.82,2.41-1.63,4.82-2.47,7.22-.08.24-.15.5-.23.77-.3,1.07-.61,2.18-1.68,2.28-.27.03-.59-.02-.94-.12Z"/><path class="cls-1" d="M375.99,99.53c.18.68-1.59,1.41-2.17,1.65-1.02.43-2,.67-3.04.77-.9.08-1.84.06-2.78-.08-.49-.07-.9-.09-1.24-.06-.98.09-1.54.58-1.91,1.67-.89,2.6-2.52,4.83-4.84,6.63-.58.45-1.37.98-2.29,1.07-.59.05-1.16-.07-1.75-.39-1.65-.88-1.83-2.46-1.87-4-.12-4.02,1.14-7.68,3.74-10.89.63-.77,1.27-1.54,1.93-2.28.53-.59,1.14-.92,1.84-.99.45-.04.94.03,1.46.21,1.19.41,1.96,1.26,2.51,2.75.46,1.25.59,2.45.4,3.65-.11.67,0,1.13.31,1.44.33.32.86.45,1.72.41.5-.02.99-.06,1.48-.1,1.15-.11,2.16-.27,3.08-.5.42-.11.8-.32,1.17-.52.46-.25.93-.51,1.46-.56.1,0,.2-.01.3,0,.39.02.5.11.51.13ZM363.37,100.78c-.32-.35-.55-.54-.78-.74-.58-.49-1.19-.99-1.85-1.42-.12-.07-.26-.22-.41-.36-.33-.33-.71-.71-1.13-.67-.23.02-.42.17-.58.45-2.01,3.43-3.29,6.48-2.99,10.26.05.63.27,1.11.62,1.4.25.21.56.3.89.27.28-.03.57-.14.88-.33,3.21-2.01,4.54-5.3,5.34-7.95.05-.15.04-.32.03-.53,0-.11-.01-.23,0-.38ZM362.72,95.69c-.2-.15-.42-.22-.66-.2-.58.05-1.1.67-1.21,1.09-.32,1.23.67,1.87,1.63,2.49.27.17.54.35.79.55l.28.21v-.28c.03-.27.07-.54.1-.8.14-1.04.27-2.11-.93-3.06Z"/><path class="cls-1" d="M406.61,77.64c.04.22.01.46-.54.51-.25.02-.53,0-.79-.01l-.27-.02c-4.35-.18-8.57.17-12.51.53l-2.98.28c-1.03.1-2.06.19-3.09.27h0c-1.24.12-2.06.4-2.48,1.43l-.84,2.09c-4.19,10.37-8.52,21.09-10.34,32.79-.73,4.68-.87,8.62-.44,12.42.01.15.03.3.03.46.04.65.08,1.32.61,1.79.37.33.91.5,1.64.52.13,0,.26.05.37.15.16.13.27.32.32.54.12.57-.25.73-.59.77h-.06c-1.72.17-2.86-.53-3.5-2.11-.67-1.66-.67-3.29-.67-4.86v-.5c-.06-10.66,2.92-20.33,5.8-29.68l.25-.81c.94-3.04,2.1-6.05,3.22-8.95.54-1.39,1.07-2.78,1.59-4.18.16-.4.32-.8-.47-1.84l-.08-.11h-.13c-1.76.18-3.55.32-5.35.47-1.83.15-3.67.31-5.51.48-2.99.28-5.42.55-7.65.85-.94.13-1.89.22-2.85.32-2.42.24-4.93.49-7.16,1.29-.26.1-.55.19-.84.21-.29.03-.52-.02-.69-.13-.16-.11-.29-.29-.38-.53-.14-.38,0-.54.51-.58.12-.01.77-.04.77-.04l.18-.02c4.35-.81,8.8-1.28,12.19-1.59,1.81-.17,3.63-.32,5.45-.47,1.82-.15,3.64-.3,5.45-.47,1.72-.16,3.43-.33,5.12-.53,1.68-.2,2.93-.67,3.56-2.35,1.37-3.63,3.3-7.05,5.9-10.48.07-.1.14-.21.22-.33.21-.34.45-.72.81-.76.2-.02.44.07.73.28.82.58.57,1.15.11,1.96-.51.9-.99,1.69-1.46,2.49-1.51,2.53-3.07,5.15-4.26,8.33l-.11.3,5.18-.49c4.21-.39,8.83-.52,14.15-.4.12,0,.27,0,.42-.01.43-.02.92-.05,1.21.17.15.11.24.29.29.54Z"/><path class="cls-1" d="M405.94,96.76c.18.68-1.59,1.41-2.17,1.65-1.02.43-2,.67-3.04.77-.9.08-1.84.06-2.78-.08-.49-.07-.9-.09-1.24-.06-.98.09-1.54.58-1.91,1.67-.89,2.6-2.52,4.83-4.84,6.63-.58.45-1.37.98-2.29,1.07-.59.05-1.16-.07-1.75-.39-1.65-.88-1.83-2.46-1.87-4-.11-4.02,1.14-7.68,3.74-10.89.63-.77,1.27-1.54,1.93-2.28.53-.59,1.15-.92,1.84-.99.45-.04.94.03,1.46.21,1.19.41,1.96,1.26,2.51,2.75.46,1.25.59,2.45.4,3.65-.11.67,0,1.13.31,1.44.33.32.86.45,1.72.41.5-.02.99-.06,1.48-.1,1.15-.11,2.16-.27,3.08-.5.42-.11.8-.32,1.17-.52.46-.25.93-.51,1.46-.56.1,0,.2-.01.3,0,.4.02.5.11.51.13ZM393.32,98c-.32-.35-.55-.54-.78-.73-.58-.49-1.19-.99-1.85-1.42-.12-.07-.26-.22-.41-.36-.33-.33-.71-.71-1.13-.67-.23.02-.42.17-.58.44-2.01,3.43-3.29,6.48-2.99,10.26.05.63.27,1.11.62,1.4.25.21.56.3.89.27.28-.03.57-.14.88-.33,3.21-2.01,4.54-5.3,5.34-7.95.05-.15.04-.32.03-.53,0-.11-.01-.23,0-.38ZM392.67,92.91c-.2-.15-.42-.22-.66-.2-.59.05-1.1.67-1.21,1.09-.32,1.23.67,1.87,1.63,2.49.27.17.54.35.79.55l.27.21.02-.28c.02-.27.05-.54.08-.8.14-1.04.27-2.11-.93-3.06Z"/><path class="cls-1" d="M424.2,94.26c.06.32-.9.55-1.37.65-.18.04-.34.08-.43.11-1.08.38-2.15.77-3.19,1.21-2.01.84-3.68,1.68-5.12,2.55-2.23,1.37-4.26,2.87-4.56,6.12-.28,3.01-1.73,5.84-4.44,8.66-1.02,1.06-2.2,1.7-3.33,1.81-.8.07-1.56-.12-2.19-.57-1.68-1.18-1.88-3.61-.48-5.76,1.81-2.79,4.59-4.82,7.32-6.59,1.72-1.12,1.76-2.37.12-4.3-.58-.69-1.12-1.4-1.65-2.12l-.51-.67c-1-1.32-1.09-2.54-.28-3.53,2.72-3.29,6.36-5.3,10.81-5.97l.29-.04c1.02-.09,1.87.14,2.45.69.64.6.91,1.54.75,2.64-.17,1.22-.77,2.28-1.84,3.26-.21.19-.46.39-.75.42-.17.02-.35-.03-.53-.15-.51-.33-.4-.7-.18-1.24.36-.89.72-1.75,1.09-2.61.2-.45.4-.93-.04-1.49-.28-.35-.62-.5-1.06-.46-.14.01-.28.05-.41.08l-.17.04c-3.7.72-6.62,2.45-8.67,5.14-.65.86-.46,1.8.56,2.8.56.55,1.1,1.17,1.6,1.84,1.04,1.4,1.79,2.42,2.98,2.31.38-.04.8-.19,1.28-.47,2.83-1.65,5.94-2.93,8.61-3.95.47-.18,1.59-.63,2.45-.71.47-.04.67.04.75.1l.12.2ZM408.11,103.96l-.38-.11c-.02.29-1.02.92-1.57,1.25-.31.19-.57.35-.7.46-.89.75-1.65,1.46-2.31,2.18l-.39.41c-1.14,1.2-2.7,2.84-2.72,4.48,0,.52.15.93.46,1.19.3.26.74.38,1.27.33.6-.06,1.16-.3,1.45-.49,3.04-1.99,4.6-5.07,4.89-9.7Z"/><g class="cls-3"><path class="cls-1" d="M173.57,224.45c.2.3.03.97-.39,1.49-7.24,9.15-16.47,17.57-27.44,25.02l-.67.48c-.87.64-1.77,1.3-2.85,1.4-.82.08-1.67-.2-2.59-.85-2.28-1.61-1.86-3.3-1.4-5.09.09-.37.18-.73.25-1.07.94-5.14,2.77-9.92,4.62-14.33,0,0,2.41-5.63,2.93-6.88.07-.16.22-.44.42-.81,1.19-2.2,2.4-4.66,1.71-5.98-.17-.33-.45-.58-.81-.73-.18-.07-.38-.11-.6-.09-1.51.14-3.66,2.94-3.68,2.97-1,1.32-2.16,3.4-2.05,5.79l.03.41c.05.65.14,1.74-.32,1.78-.18.02-.66-.09-1.77-1.01l-.33-.28-.68.84c-.37.46-.75.92-1.1,1.39-1.57,2.06-3.06,4.19-4.55,6.31-3.29,4.69-6.7,9.54-10.91,13.63l-.83.84c-1.28,1.32-2.73,2.82-4.51,2.98-.82.08-1.66-.13-2.55-.64-3.55-2.01-2.99-5.44-2.5-8.47l.12-.77c1.16-7.6,3.93-14.42,8.25-20.26,3.09-4.18,6.72-6.33,11.41-6.76l.44-.04c2.02-.14,4.08-.29,5.11.89,1.66,1.89,3.02,2.72,4.28,2.61,1.21-.11,2.06-1.09,2.96-2.13l.31-.35c.66-.75,1.45-1.4,2.28-1.87.69-.4,1.35-.78,2.08-.85.56-.05,1.1.1,1.64.47,1.4.94,1.15,2.04.67,3.37-2.11,5.96-4.28,11.77-6.46,17.58l-1.71,4.56c-.69,1.83-1.19,3.78-1.67,5.67l-.46,1.78c-.21.79-.18,1.35.12,1.76.17.24.42.41.73.5.22.06.47.08.76.05,1.59-.15,4.03-1.65,4.68-2.19,4.71-3.9,9.26-7.95,13.52-11.75,1.4-1.25,2.73-2.55,4.06-3.85.94-.92,1.88-1.83,2.85-2.74.47-.44.93-.9,1.39-1.35.83-.83,1.66-1.66,2.6-2.4l.36-.31c.42-.38,1.07-.96,1.54-1,.31.02.61.07.72.24ZM137.73,219.89c-1.02-1.13-2.52-1.79-3.8-1.67-.18.02-.36.05-.53.1-1.88.53-3.59,1.33-4.95,2.31-6.48,4.7-9.77,11.77-12.35,18.02-.27.66-.58,1.29-.88,1.94-.74,1.55-1.51,3.15-1.76,4.97-.11.85-.07,3.44,1.11,4.34.3.23.64.34,1.01.3.34-.03.69-.19,1.07-.47,6.48-4.77,10.87-11.39,15.12-17.79,2-3.01,4.07-6.13,6.33-9,.7-.89.57-2.03-.34-3.05Z"/><path class="cls-1" d="M235.48,222.6c.2.55-.29,1.18-.71,1.74-.21.26-.4.52-.52.75-5.56,10.65-13.82,19.69-25.25,27.63-1.19.83-2.67,1.32-4.65,1.53l-.19.02c-1.97.18-3.54-.19-4.68-1.1-1.17-.94-1.85-2.43-2.03-4.44-.32-3.63,1.1-6.57,2.47-9.41l.94-1.98c.46-.96.92-1.92,1.24-2.94l.13-.36c.27-.7.64-1.66-.52-2.63-.65-.55-1.42-.78-2.29-.7-.35.03-.7.11-1.08.24-2.96,1.02-6.04,2.08-8.94,3.4-3.85,1.74-7.26,4.09-10.56,6.37-1.45.99-2.9,1.99-4.39,2.95l-.41.27c-.68.46-1.38.92-2.2,1-.72.07-1.48-.19-2.31-.79-1.77-1.28-1.59-2.63-1.39-4.06l.06-.46c.78-6.55,2.63-12.56,5.5-17.85l.19-.38c.31-.62.66-1.32,1.34-1.38.23-.02.48.03.79.14.52.2.9.49,1.14.9.88,1.45-.04,3.99-.58,5.5-.14.38-.26.71-.33.96l-3.13,11.06c-.08.28-.32,1.15.35,1.64.29.21.65.29,1.13.25,1.04-.1,2.44-.8,2.92-1.11.66-.43,1.25-.93,1.85-1.43.68-.57,1.35-1.15,2.14-1.6,2.44-1.41,4.9-2.79,7.42-4.11,3.12-1.62,6-2.74,8.82-3.41.43-.1.84-.17,1.25-.2,2.01-.19,3.8.37,5.05,1.55,1.36,1.3,1.92,3.2,1.57,5.33-.45,2.72-1.28,5.37-2.09,7.93-.45,1.44-.9,2.87-1.29,4.33l-.15.49c-.28.86-.67,2.03.45,3,.64.55,1.38.79,2.2.71.67-.06,1.29-.32,1.84-.55,7.17-2.92,11.98-8.2,15.94-12.92,3.3-3.94,7.42-8.85,9.82-14.63l.14-.34c.31-.8.74-1.88,1.45-1.95.19-.02.4.04.64.18.51.29.82.58.92.86ZM179.07,212.36c-.8-.75-.33-1.43.43-2.32.13-.16.26-.3.37-.45,1.55-2.06,2.97-3.05,4.61-3.21,1.73-.16,3.85.63,6.88,2.55,2.54,1.62,4.41,2.24,6.26,2.07,1.52-.14,3.12-.84,5.17-2.27.25-.17.48-.44.73-.72.38-.43.77-.88,1.22-.92.17-.02.44,0,.88.41.13.11.2.24.22.39.1.74-1,1.75-1.66,2.35-1.53,1.4-3.27,2.22-5.05,2.38-.51.07-.8.11-1.1.13-2.65.25-5.06-.47-7.14-2.13-1.56-1.24-3.22-1.82-4.81-1.67-1,.09-1.94.49-2.72,1.14-.16.13-.37.36-.62.63-.69.76-1.74,1.91-2.72,2-.36.03-.66-.08-.94-.35Z"/><path class="cls-1" d="M275.24,218.97c.36,1.36-3.19,2.82-4.35,3.31-2.05.87-4.01,1.35-6.09,1.54-1.81.17-3.68.11-5.56-.17-.98-.14-1.79-.18-2.49-.12-1.97.18-3.08,1.15-3.83,3.35-1.78,5.2-5.04,9.66-9.69,13.28-1.17.91-2.74,1.97-4.59,2.14-1.17.11-2.32-.15-3.5-.78-3.3-1.77-3.66-4.92-3.75-8-.23-8.04,2.29-15.38,7.48-21.8,1.25-1.54,2.54-3.08,3.86-4.57,1.05-1.18,2.29-1.84,3.69-1.97.9-.08,1.88.05,2.92.41,2.38.83,3.93,2.52,5.02,5.5.92,2.5,1.18,4.9.79,7.32-.21,1.35-.02,2.26.61,2.88.66.65,1.72.9,3.44.81,1-.04,1.99-.11,2.97-.2,2.3-.21,4.32-.54,6.16-1.01.85-.22,1.61-.64,2.35-1.05.91-.51,1.85-1.03,2.93-1.13.2-.02.4-.02.61,0,.79.05,1.01.21,1.02.27ZM249.98,221.46c-.63-.69-1.09-1.08-1.56-1.47-1.17-.98-2.38-1.99-3.71-2.84-.24-.15-.52-.43-.82-.73-.67-.66-1.43-1.41-2.26-1.34-.46.04-.83.33-1.16.89-4.03,6.86-6.59,12.98-5.99,20.53.1,1.26.53,2.22,1.24,2.8.51.41,1.13.59,1.79.53.55-.05,1.14-.27,1.75-.65,6.43-4.02,9.08-10.62,10.69-15.91.09-.31.08-.64.05-1.06-.01-.22-.03-.47-.02-.76ZM248.68,211.27c-.39-.31-.84-.45-1.31-.4-1.17.11-2.2,1.34-2.41,2.18-.63,2.46,1.34,3.75,3.25,5,.53.35,1.08.71,1.59,1.1l.55.42.03-.56c.03-.54.1-1.08.17-1.61.27-2.08.55-4.23-1.87-6.13Z"/><path class="cls-1" d="M311.81,213.96c.12.65-1.81,1.1-2.74,1.31-.37.09-.68.16-.87.22-2.15.77-4.3,1.55-6.38,2.42-4.03,1.68-7.38,3.35-10.25,5.12-4.46,2.74-8.52,5.74-9.13,12.25-.57,6.03-3.47,11.7-8.88,17.34-2.04,2.12-4.4,3.41-6.67,3.62-1.6.15-3.12-.25-4.39-1.14-3.36-2.37-3.76-7.22-.96-11.53,3.63-5.59,9.19-9.64,14.66-13.19,3.44-2.24,3.51-4.74.24-8.62-1.16-1.38-2.23-2.81-3.3-4.24l-1.01-1.35c-2-2.64-2.19-5.08-.55-7.06,5.44-6.59,12.73-10.61,21.65-11.96l.59-.07c2.05-.19,3.75.29,4.92,1.38,1.29,1.21,1.82,3.08,1.51,5.29-.35,2.44-1.55,4.57-3.68,6.52-.42.38-.93.79-1.51.84-.35.03-.7-.07-1.07-.31-1.01-.66-.8-1.41-.37-2.48.72-1.77,1.43-3.51,2.18-5.23.39-.9.81-1.86-.08-2.97-.56-.7-1.25-1-2.11-.92-.28.03-.56.09-.82.15l-.34.08c-7.41,1.44-13.25,4.9-17.35,10.29-1.31,1.72-.93,3.61,1.12,5.61,1.13,1.1,2.21,2.35,3.21,3.69,2.08,2.81,3.59,4.84,5.96,4.62.76-.07,1.6-.38,2.56-.94,5.66-3.31,11.89-5.86,17.24-7.91.93-.37,3.19-1.26,4.9-1.42.93-.09,1.33.08,1.49.19l.24.39ZM279.59,233.39l-.77-.22c-.04.58-2.05,1.83-3.14,2.5-.61.38-1.14.71-1.4.92-1.78,1.5-3.29,2.93-4.62,4.36l-.78.82c-2.28,2.4-5.41,5.68-5.45,8.98-.02,1.05.29,1.85.91,2.39.61.52,1.49.75,2.54.65,1.21-.11,2.32-.59,2.91-.98,6.09-3.98,9.2-10.15,9.79-19.43Z"/></g></g></svg>